<mxfile host="app.diagrams.net" modified="2023-04-23T10:13:10.099Z" agent="Mozilla/5.0 (Windows NT 10.0; Win64; x64) AppleWebKit/537.36 (KHTML, like Gecko) Chrome/112.0.0.0 Safari/537.36" etag="yXYLXQKX_4yIb8ICUxZu" version="21.2.1" type="device">
  <diagram name="Страница 1" id="ZBiEbKKiV3mcNjNrdoDi">
    <mxGraphModel dx="1434" dy="802" grid="1" gridSize="10" guides="1" tooltips="1" connect="1" arrows="1" fold="1" page="1" pageScale="1" pageWidth="827" pageHeight="1169" math="0" shadow="0">
      <root>
        <mxCell id="0" />
        <mxCell id="1" parent="0" />
        <mxCell id="771emfrWesVEJpjvHEM5-4" style="edgeStyle=orthogonalEdgeStyle;rounded=0;orthogonalLoop=1;jettySize=auto;html=1;exitX=0.5;exitY=1;exitDx=0;exitDy=0;" edge="1" parent="1" target="771emfrWesVEJpjvHEM5-3">
          <mxGeometry relative="1" as="geometry">
            <mxPoint x="450" y="90" as="sourcePoint" />
          </mxGeometry>
        </mxCell>
        <mxCell id="771emfrWesVEJpjvHEM5-6" style="edgeStyle=orthogonalEdgeStyle;rounded=0;orthogonalLoop=1;jettySize=auto;html=1;exitX=0.5;exitY=1;exitDx=0;exitDy=0;" edge="1" parent="1" source="771emfrWesVEJpjvHEM5-3">
          <mxGeometry relative="1" as="geometry">
            <mxPoint x="450" y="230" as="targetPoint" />
          </mxGeometry>
        </mxCell>
        <mxCell id="771emfrWesVEJpjvHEM5-3" value="string[] array&lt;br&gt;string[] newArray&lt;br&gt;int j = 0" style="shape=parallelogram;perimeter=parallelogramPerimeter;whiteSpace=wrap;html=1;fixedSize=1;" vertex="1" parent="1">
          <mxGeometry x="337.5" y="120" width="225" height="60" as="geometry" />
        </mxCell>
        <mxCell id="771emfrWesVEJpjvHEM5-9" style="edgeStyle=orthogonalEdgeStyle;rounded=0;orthogonalLoop=1;jettySize=auto;html=1;exitX=0.5;exitY=1;exitDx=0;exitDy=0;entryX=0.5;entryY=0;entryDx=0;entryDy=0;" edge="1" parent="1" source="771emfrWesVEJpjvHEM5-7" target="771emfrWesVEJpjvHEM5-8">
          <mxGeometry relative="1" as="geometry" />
        </mxCell>
        <mxCell id="771emfrWesVEJpjvHEM5-19" style="edgeStyle=orthogonalEdgeStyle;rounded=0;orthogonalLoop=1;jettySize=auto;html=1;exitX=1;exitY=0.5;exitDx=0;exitDy=0;entryX=0;entryY=0.5;entryDx=0;entryDy=0;" edge="1" parent="1" source="771emfrWesVEJpjvHEM5-7" target="771emfrWesVEJpjvHEM5-18">
          <mxGeometry relative="1" as="geometry" />
        </mxCell>
        <mxCell id="771emfrWesVEJpjvHEM5-7" value="for (int i =0;&lt;br style=&quot;border-color: var(--border-color);&quot;&gt;i &amp;lt; array.Length;&lt;br style=&quot;border-color: var(--border-color);&quot;&gt;i++)" style="shape=hexagon;perimeter=hexagonPerimeter2;whiteSpace=wrap;html=1;fixedSize=1;" vertex="1" parent="1">
          <mxGeometry x="380" y="230" width="140" height="90" as="geometry" />
        </mxCell>
        <mxCell id="771emfrWesVEJpjvHEM5-10" style="edgeStyle=orthogonalEdgeStyle;rounded=0;orthogonalLoop=1;jettySize=auto;html=1;entryX=0;entryY=0.5;entryDx=0;entryDy=0;" edge="1" parent="1" source="771emfrWesVEJpjvHEM5-8" target="771emfrWesVEJpjvHEM5-7">
          <mxGeometry relative="1" as="geometry">
            <mxPoint x="280" y="290" as="targetPoint" />
            <Array as="points">
              <mxPoint x="340" y="438" />
              <mxPoint x="340" y="275" />
            </Array>
          </mxGeometry>
        </mxCell>
        <mxCell id="771emfrWesVEJpjvHEM5-12" style="edgeStyle=orthogonalEdgeStyle;rounded=0;orthogonalLoop=1;jettySize=auto;html=1;entryX=0.5;entryY=1;entryDx=0;entryDy=0;" edge="1" parent="1" source="771emfrWesVEJpjvHEM5-8" target="771emfrWesVEJpjvHEM5-16">
          <mxGeometry relative="1" as="geometry">
            <mxPoint x="180" y="438" as="targetPoint" />
          </mxGeometry>
        </mxCell>
        <mxCell id="771emfrWesVEJpjvHEM5-8" value="if (array[i].Lenght &amp;lt;=3)" style="rhombus;whiteSpace=wrap;html=1;" vertex="1" parent="1">
          <mxGeometry x="358.75" y="398" width="182.5" height="80" as="geometry" />
        </mxCell>
        <mxCell id="771emfrWesVEJpjvHEM5-11" value="no" style="text;html=1;align=center;verticalAlign=middle;resizable=0;points=[];autosize=1;strokeColor=none;fillColor=none;" vertex="1" parent="1">
          <mxGeometry x="330" y="368" width="40" height="30" as="geometry" />
        </mxCell>
        <mxCell id="771emfrWesVEJpjvHEM5-13" value="yes" style="text;html=1;align=center;verticalAlign=middle;resizable=0;points=[];autosize=1;strokeColor=none;fillColor=none;" vertex="1" parent="1">
          <mxGeometry x="250" y="438" width="40" height="30" as="geometry" />
        </mxCell>
        <mxCell id="771emfrWesVEJpjvHEM5-14" value="Метод DellSymbols" style="text;html=1;align=center;verticalAlign=middle;resizable=0;points=[];autosize=1;strokeColor=none;fillColor=none;" vertex="1" parent="1">
          <mxGeometry x="35" y="8" width="130" height="30" as="geometry" />
        </mxCell>
        <mxCell id="771emfrWesVEJpjvHEM5-15" value="DellSymbols" style="rounded=1;whiteSpace=wrap;html=1;" vertex="1" parent="1">
          <mxGeometry x="370" y="30" width="160" height="60" as="geometry" />
        </mxCell>
        <mxCell id="771emfrWesVEJpjvHEM5-17" style="edgeStyle=orthogonalEdgeStyle;rounded=0;orthogonalLoop=1;jettySize=auto;html=1;exitX=1;exitY=0.5;exitDx=0;exitDy=0;" edge="1" parent="1" source="771emfrWesVEJpjvHEM5-16">
          <mxGeometry relative="1" as="geometry">
            <mxPoint x="340" y="275" as="targetPoint" />
          </mxGeometry>
        </mxCell>
        <mxCell id="771emfrWesVEJpjvHEM5-16" value="newArray[j] = array[i]&lt;br&gt;j++;" style="rounded=0;whiteSpace=wrap;html=1;" vertex="1" parent="1">
          <mxGeometry x="130" y="245" width="120" height="60" as="geometry" />
        </mxCell>
        <mxCell id="771emfrWesVEJpjvHEM5-18" value="return newArray" style="shape=document;whiteSpace=wrap;html=1;boundedLbl=1;" vertex="1" parent="1">
          <mxGeometry x="570" y="235" width="120" height="80" as="geometry" />
        </mxCell>
      </root>
    </mxGraphModel>
  </diagram>
</mxfile>
